<mxfile host="drawio-plugin" modified="2022-03-08T10:38:33.707Z" agent="5.0 (Windows NT 6.2; Win64; x64) AppleWebKit/537.36 (KHTML, like Gecko) Chrome/89.0.4389.114 Safari/537.36" etag="WH_aDAejJ4KMIaIg4Aji" version="15.5.4" type="embed"><diagram id="lKBanZO2-mpPXdXCWVmd" name="Strona-1"><mxGraphModel dx="2493" dy="2270" grid="1" gridSize="10" guides="1" tooltips="1" connect="1" arrows="1" fold="1" page="1" pageScale="1" pageWidth="827" pageHeight="1169" math="0" shadow="0"><root><mxCell id="0"/><mxCell id="1" parent="0"/><mxCell id="7JRMfcrFJeAGxShlU-EV-49" value="" style="rounded=0;whiteSpace=wrap;html=1;" parent="1" vertex="1"><mxGeometry x="170" y="520" width="510" height="400" as="geometry"/></mxCell><mxCell id="7JRMfcrFJeAGxShlU-EV-27" value="" style="rounded=0;whiteSpace=wrap;html=1;" parent="1" vertex="1"><mxGeometry x="170" y="-10" width="510" height="500" as="geometry"/></mxCell><mxCell id="7JRMfcrFJeAGxShlU-EV-6" style="edgeStyle=orthogonalEdgeStyle;rounded=0;orthogonalLoop=1;jettySize=auto;html=1;" parent="1" source="7JRMfcrFJeAGxShlU-EV-1" target="7JRMfcrFJeAGxShlU-EV-2" edge="1"><mxGeometry relative="1" as="geometry"/></mxCell><mxCell id="7JRMfcrFJeAGxShlU-EV-7" style="edgeStyle=orthogonalEdgeStyle;rounded=0;orthogonalLoop=1;jettySize=auto;html=1;entryX=0.5;entryY=0;entryDx=0;entryDy=0;" parent="1" source="7JRMfcrFJeAGxShlU-EV-1" target="7JRMfcrFJeAGxShlU-EV-5" edge="1"><mxGeometry relative="1" as="geometry"/></mxCell><mxCell id="7JRMfcrFJeAGxShlU-EV-1" value="STORE" style="rounded=0;whiteSpace=wrap;html=1;fillColor=#60a917;strokeColor=#2D7600;fontColor=#ffffff;" parent="1" vertex="1"><mxGeometry x="320" y="90" width="120" height="30" as="geometry"/></mxCell><mxCell id="7JRMfcrFJeAGxShlU-EV-9" style="edgeStyle=orthogonalEdgeStyle;rounded=0;orthogonalLoop=1;jettySize=auto;html=1;" parent="1" source="7JRMfcrFJeAGxShlU-EV-2" target="7JRMfcrFJeAGxShlU-EV-8" edge="1"><mxGeometry relative="1" as="geometry"/></mxCell><mxCell id="7JRMfcrFJeAGxShlU-EV-2" value="" style="rounded=0;whiteSpace=wrap;html=1;fillColor=#60a917;strokeColor=#2D7600;fontColor=#ffffff;" parent="1" vertex="1"><mxGeometry x="240" y="170" width="120" height="30" as="geometry"/></mxCell><mxCell id="7JRMfcrFJeAGxShlU-EV-5" value="" style="rounded=0;whiteSpace=wrap;html=1;fillColor=#a20025;strokeColor=#6F0000;fontColor=#ffffff;" parent="1" vertex="1"><mxGeometry x="400" y="170" width="120" height="30" as="geometry"/></mxCell><mxCell id="7JRMfcrFJeAGxShlU-EV-11" style="edgeStyle=orthogonalEdgeStyle;rounded=0;orthogonalLoop=1;jettySize=auto;html=1;entryX=0.5;entryY=0;entryDx=0;entryDy=0;" parent="1" source="7JRMfcrFJeAGxShlU-EV-8" target="7JRMfcrFJeAGxShlU-EV-10" edge="1"><mxGeometry relative="1" as="geometry"/></mxCell><mxCell id="7JRMfcrFJeAGxShlU-EV-18" style="edgeStyle=orthogonalEdgeStyle;rounded=0;orthogonalLoop=1;jettySize=auto;html=1;entryX=0.5;entryY=0;entryDx=0;entryDy=0;" parent="1" source="7JRMfcrFJeAGxShlU-EV-8" target="7JRMfcrFJeAGxShlU-EV-19" edge="1"><mxGeometry relative="1" as="geometry"><mxPoint x="510" y="430" as="targetPoint"/><Array as="points"><mxPoint x="300" y="290"/><mxPoint x="440" y="290"/></Array></mxGeometry></mxCell><mxCell id="7JRMfcrFJeAGxShlU-EV-21" style="edgeStyle=orthogonalEdgeStyle;rounded=0;orthogonalLoop=1;jettySize=auto;html=1;" parent="1" source="7JRMfcrFJeAGxShlU-EV-8" target="7JRMfcrFJeAGxShlU-EV-20" edge="1"><mxGeometry relative="1" as="geometry"><Array as="points"><mxPoint x="300" y="290"/><mxPoint x="565" y="290"/></Array></mxGeometry></mxCell><mxCell id="7JRMfcrFJeAGxShlU-EV-8" value="LOAD" style="rounded=0;whiteSpace=wrap;html=1;fillColor=#60a917;strokeColor=#2D7600;fontColor=#ffffff;" parent="1" vertex="1"><mxGeometry x="240" y="230" width="120" height="30" as="geometry"/></mxCell><mxCell id="7JRMfcrFJeAGxShlU-EV-12" style="edgeStyle=orthogonalEdgeStyle;rounded=0;orthogonalLoop=1;jettySize=auto;html=1;" parent="1" source="7JRMfcrFJeAGxShlU-EV-10" edge="1"><mxGeometry relative="1" as="geometry"><mxPoint x="240" y="245" as="targetPoint"/><Array as="points"><mxPoint x="300" y="390"/><mxPoint x="200" y="390"/><mxPoint x="200" y="245"/><mxPoint x="240" y="245"/></Array></mxGeometry></mxCell><mxCell id="7JRMfcrFJeAGxShlU-EV-17" style="edgeStyle=orthogonalEdgeStyle;rounded=0;orthogonalLoop=1;jettySize=auto;html=1;" parent="1" source="7JRMfcrFJeAGxShlU-EV-10" target="7JRMfcrFJeAGxShlU-EV-15" edge="1"><mxGeometry relative="1" as="geometry"><Array as="points"><mxPoint x="300" y="390"/><mxPoint x="330" y="390"/></Array></mxGeometry></mxCell><mxCell id="7JRMfcrFJeAGxShlU-EV-10" value="" style="rounded=0;whiteSpace=wrap;html=1;fillColor=#1ba1e2;strokeColor=#006EAF;fontColor=#ffffff;" parent="1" vertex="1"><mxGeometry x="240" y="310" width="120" height="30" as="geometry"/></mxCell><mxCell id="7JRMfcrFJeAGxShlU-EV-15" value="" style="rounded=0;whiteSpace=wrap;html=1;fillColor=#a20025;strokeColor=#6F0000;fontColor=#ffffff;" parent="1" vertex="1"><mxGeometry x="290" y="430" width="80" height="30" as="geometry"/></mxCell><mxCell id="7JRMfcrFJeAGxShlU-EV-19" value="" style="rounded=0;whiteSpace=wrap;html=1;fillColor=#a20025;strokeColor=#6F0000;fontColor=#ffffff;" parent="1" vertex="1"><mxGeometry x="400" y="430" width="80" height="30" as="geometry"/></mxCell><mxCell id="7JRMfcrFJeAGxShlU-EV-22" style="edgeStyle=orthogonalEdgeStyle;rounded=0;orthogonalLoop=1;jettySize=auto;html=1;" parent="1" source="7JRMfcrFJeAGxShlU-EV-20" target="7JRMfcrFJeAGxShlU-EV-1" edge="1"><mxGeometry relative="1" as="geometry"><Array as="points"><mxPoint x="650" y="445"/><mxPoint x="650" y="60"/><mxPoint x="380" y="60"/></Array></mxGeometry></mxCell><mxCell id="7JRMfcrFJeAGxShlU-EV-20" value="" style="rounded=0;whiteSpace=wrap;html=1;fillColor=#6a00ff;strokeColor=#3700CC;fontColor=#ffffff;" parent="1" vertex="1"><mxGeometry x="520" y="430" width="90" height="30" as="geometry"/></mxCell><mxCell id="7JRMfcrFJeAGxShlU-EV-23" value="Checked (in dominance path between store and load)" style="rounded=0;whiteSpace=wrap;html=1;fillColor=#60a917;strokeColor=#2D7600;fontColor=#ffffff;" parent="1" vertex="1"><mxGeometry x="-90" y="137.5" width="220" height="45" as="geometry"/></mxCell><mxCell id="7JRMfcrFJeAGxShlU-EV-24" value="Checked (block that can allow load block to reach itself without hitting store block)" style="rounded=0;whiteSpace=wrap;html=1;fillColor=#1ba1e2;strokeColor=#006EAF;fontColor=#ffffff;" parent="1" vertex="1"><mxGeometry x="-90" y="199.5" width="220" height="45" as="geometry"/></mxCell><mxCell id="7JRMfcrFJeAGxShlU-EV-25" value="Not checked (can reach load block but it goes through store block)" style="rounded=0;whiteSpace=wrap;html=1;fillColor=#6a00ff;strokeColor=#3700CC;fontColor=#ffffff;" parent="1" vertex="1"><mxGeometry x="-90" y="267.5" width="220" height="45" as="geometry"/></mxCell><mxCell id="7JRMfcrFJeAGxShlU-EV-26" value="Not checked (no path)" style="rounded=0;whiteSpace=wrap;html=1;fillColor=#f8cecc;strokeColor=#b85450;" parent="1" vertex="1"><mxGeometry x="-90" y="337.5" width="220" height="45" as="geometry"/></mxCell><mxCell id="7JRMfcrFJeAGxShlU-EV-28" value="Destroying known load after store (Killer = Store, Killee = Load)" style="rounded=0;whiteSpace=wrap;html=1;" parent="1" vertex="1"><mxGeometry x="200" y="10" width="450" height="30" as="geometry"/></mxCell><mxCell id="7JRMfcrFJeAGxShlU-EV-34" style="edgeStyle=orthogonalEdgeStyle;rounded=0;orthogonalLoop=1;jettySize=auto;html=1;" parent="1" source="7JRMfcrFJeAGxShlU-EV-30" target="7JRMfcrFJeAGxShlU-EV-31" edge="1"><mxGeometry relative="1" as="geometry"><Array as="points"><mxPoint x="391" y="690"/><mxPoint x="311" y="690"/></Array></mxGeometry></mxCell><mxCell id="7JRMfcrFJeAGxShlU-EV-35" style="edgeStyle=orthogonalEdgeStyle;rounded=0;orthogonalLoop=1;jettySize=auto;html=1;entryX=0.5;entryY=0;entryDx=0;entryDy=0;" parent="1" source="7JRMfcrFJeAGxShlU-EV-30" target="7JRMfcrFJeAGxShlU-EV-45" edge="1"><mxGeometry relative="1" as="geometry"><mxPoint x="591" y="710" as="targetPoint"/><Array as="points"><mxPoint x="391" y="690"/><mxPoint x="521" y="690"/></Array></mxGeometry></mxCell><mxCell id="7JRMfcrFJeAGxShlU-EV-30" value="DEAD STORE" style="rounded=0;whiteSpace=wrap;html=1;fillColor=#60a917;strokeColor=#2D7600;fontColor=#ffffff;" parent="1" vertex="1"><mxGeometry x="331" y="630" width="120" height="30" as="geometry"/></mxCell><mxCell id="7JRMfcrFJeAGxShlU-EV-37" style="edgeStyle=orthogonalEdgeStyle;rounded=0;orthogonalLoop=1;jettySize=auto;html=1;" parent="1" source="7JRMfcrFJeAGxShlU-EV-31" target="7JRMfcrFJeAGxShlU-EV-36" edge="1"><mxGeometry relative="1" as="geometry"/></mxCell><mxCell id="7JRMfcrFJeAGxShlU-EV-31" value="" style="rounded=0;whiteSpace=wrap;html=1;fillColor=#60a917;strokeColor=#2D7600;fontColor=#ffffff;" parent="1" vertex="1"><mxGeometry x="251" y="710" width="120" height="30" as="geometry"/></mxCell><mxCell id="7JRMfcrFJeAGxShlU-EV-40" style="edgeStyle=orthogonalEdgeStyle;rounded=0;orthogonalLoop=1;jettySize=auto;html=1;entryX=0.5;entryY=0;entryDx=0;entryDy=0;" parent="1" source="7JRMfcrFJeAGxShlU-EV-36" target="7JRMfcrFJeAGxShlU-EV-38" edge="1"><mxGeometry relative="1" as="geometry"/></mxCell><mxCell id="7JRMfcrFJeAGxShlU-EV-41" style="edgeStyle=orthogonalEdgeStyle;rounded=0;orthogonalLoop=1;jettySize=auto;html=1;" parent="1" source="7JRMfcrFJeAGxShlU-EV-36" target="7JRMfcrFJeAGxShlU-EV-39" edge="1"><mxGeometry relative="1" as="geometry"/></mxCell><mxCell id="7JRMfcrFJeAGxShlU-EV-36" value="STORE" style="rounded=0;whiteSpace=wrap;html=1;fillColor=#60a917;strokeColor=#2D7600;fontColor=#ffffff;" parent="1" vertex="1"><mxGeometry x="251" y="770" width="120" height="30" as="geometry"/></mxCell><mxCell id="7JRMfcrFJeAGxShlU-EV-38" value="" style="rounded=0;whiteSpace=wrap;html=1;fillColor=#f8cecc;strokeColor=#b85450;" parent="1" vertex="1"><mxGeometry x="331" y="840" width="70" height="30" as="geometry"/></mxCell><mxCell id="7JRMfcrFJeAGxShlU-EV-42" style="edgeStyle=orthogonalEdgeStyle;rounded=0;orthogonalLoop=1;jettySize=auto;html=1;" parent="1" source="7JRMfcrFJeAGxShlU-EV-39" target="7JRMfcrFJeAGxShlU-EV-30" edge="1"><mxGeometry relative="1" as="geometry"><Array as="points"><mxPoint x="266" y="890"/><mxPoint x="201" y="890"/><mxPoint x="201" y="590"/><mxPoint x="391" y="590"/></Array></mxGeometry></mxCell><mxCell id="7JRMfcrFJeAGxShlU-EV-39" value="" style="rounded=0;whiteSpace=wrap;html=1;fillColor=#6a00ff;strokeColor=#3700CC;fontColor=#ffffff;" parent="1" vertex="1"><mxGeometry x="231" y="840" width="70" height="30" as="geometry"/></mxCell><mxCell id="7JRMfcrFJeAGxShlU-EV-43" value="" style="rounded=0;whiteSpace=wrap;html=1;fillColor=#f8cecc;strokeColor=#b85450;" parent="1" vertex="1"><mxGeometry x="431" y="780" width="80" height="30" as="geometry"/></mxCell><mxCell id="7JRMfcrFJeAGxShlU-EV-48" style="edgeStyle=orthogonalEdgeStyle;rounded=0;orthogonalLoop=1;jettySize=auto;html=1;entryX=0.5;entryY=0;entryDx=0;entryDy=0;" parent="1" source="7JRMfcrFJeAGxShlU-EV-44" target="7JRMfcrFJeAGxShlU-EV-30" edge="1"><mxGeometry relative="1" as="geometry"><Array as="points"><mxPoint x="651" y="795"/><mxPoint x="651" y="590"/><mxPoint x="391" y="590"/></Array></mxGeometry></mxCell><mxCell id="7JRMfcrFJeAGxShlU-EV-44" value="" style="rounded=0;whiteSpace=wrap;html=1;fillColor=#1ba1e2;strokeColor=#006EAF;fontColor=#ffffff;" parent="1" vertex="1"><mxGeometry x="541" y="780" width="80" height="30" as="geometry"/></mxCell><mxCell id="7JRMfcrFJeAGxShlU-EV-46" style="edgeStyle=orthogonalEdgeStyle;rounded=0;orthogonalLoop=1;jettySize=auto;html=1;" parent="1" source="7JRMfcrFJeAGxShlU-EV-45" target="7JRMfcrFJeAGxShlU-EV-43" edge="1"><mxGeometry relative="1" as="geometry"/></mxCell><mxCell id="7JRMfcrFJeAGxShlU-EV-47" style="edgeStyle=orthogonalEdgeStyle;rounded=0;orthogonalLoop=1;jettySize=auto;html=1;entryX=0.5;entryY=0;entryDx=0;entryDy=0;" parent="1" source="7JRMfcrFJeAGxShlU-EV-45" target="7JRMfcrFJeAGxShlU-EV-44" edge="1"><mxGeometry relative="1" as="geometry"/></mxCell><mxCell id="7JRMfcrFJeAGxShlU-EV-45" value="" style="rounded=0;whiteSpace=wrap;html=1;fillColor=#1ba1e2;strokeColor=#006EAF;fontColor=#ffffff;" parent="1" vertex="1"><mxGeometry x="481" y="710" width="80" height="30" as="geometry"/></mxCell><mxCell id="7JRMfcrFJeAGxShlU-EV-50" value="Destroying dead store before store (Killer = Store, Killee = Dead Store)" style="rounded=0;whiteSpace=wrap;html=1;" parent="1" vertex="1"><mxGeometry x="200" y="540" width="450" height="30" as="geometry"/></mxCell><mxCell id="7JRMfcrFJeAGxShlU-EV-51" value="Checked (in dominance path between dead store and store)" style="rounded=0;whiteSpace=wrap;html=1;fillColor=#60a917;strokeColor=#2D7600;fontColor=#ffffff;" parent="1" vertex="1"><mxGeometry x="-90" y="585" width="220" height="45" as="geometry"/></mxCell><mxCell id="7JRMfcrFJeAGxShlU-EV-52" value="Checked (block that can allow dead store block to reach itself without hitting store block)" style="rounded=0;whiteSpace=wrap;html=1;fillColor=#1ba1e2;strokeColor=#006EAF;fontColor=#ffffff;" parent="1" vertex="1"><mxGeometry x="-90" y="647" width="220" height="45" as="geometry"/></mxCell><mxCell id="7JRMfcrFJeAGxShlU-EV-53" value="Not checked (can reach dead store block but it goes through store block)" style="rounded=0;whiteSpace=wrap;html=1;fillColor=#6a00ff;strokeColor=#3700CC;fontColor=#ffffff;" parent="1" vertex="1"><mxGeometry x="-90" y="715" width="220" height="45" as="geometry"/></mxCell><mxCell id="7JRMfcrFJeAGxShlU-EV-54" value="Not checked (no path)" style="rounded=0;whiteSpace=wrap;html=1;fillColor=#f8cecc;strokeColor=#b85450;" parent="1" vertex="1"><mxGeometry x="-90" y="785" width="220" height="45" as="geometry"/></mxCell><mxCell id="2" value="Not checked (no path)" style="rounded=0;whiteSpace=wrap;html=1;fillColor=#a20025;strokeColor=#6F0000;fontColor=#ffffff;" parent="1" vertex="1"><mxGeometry x="-90" y="337.5" width="220" height="45" as="geometry"/></mxCell><mxCell id="3" value="Not checked (no path)" style="rounded=0;whiteSpace=wrap;html=1;fillColor=#a20025;strokeColor=#6F0000;fontColor=#ffffff;" parent="1" vertex="1"><mxGeometry x="-90" y="785" width="220" height="45" as="geometry"/></mxCell><mxCell id="4" value="" style="rounded=0;whiteSpace=wrap;html=1;fillColor=#a20025;strokeColor=#6F0000;fontColor=#ffffff;" parent="1" vertex="1"><mxGeometry x="331" y="840" width="70" height="30" as="geometry"/></mxCell><mxCell id="5" value="" style="rounded=0;whiteSpace=wrap;html=1;fillColor=#a20025;strokeColor=#6F0000;fontColor=#ffffff;" parent="1" vertex="1"><mxGeometry x="431" y="780" width="80" height="30" as="geometry"/></mxCell></root></mxGraphModel></diagram></mxfile>